<?xml version="1.0" encoding="UTF-8" standalone="no"?>
<!-- Created with Inkscape (http://www.inkscape.org/) -->

<svg
   xmlns:dc="http://purl.org/dc/elements/1.1/"
   xmlns:cc="http://creativecommons.org/ns#"
   xmlns:rdf="http://www.w3.org/1999/02/22-rdf-syntax-ns#"
   xmlns:svg="http://www.w3.org/2000/svg"
   xmlns="http://www.w3.org/2000/svg"
   xmlns:sodipodi="http://sodipodi.sourceforge.net/DTD/sodipodi-0.dtd"
   xmlns:inkscape="http://www.inkscape.org/namespaces/inkscape"
   width="210mm"
   height="297mm"
   viewBox="0 0 210 297"
   version="1.1"
   id="svg8"
   inkscape:version="0.92.4 (5da689c313, 2019-01-14)"
   sodipodi:docname="Proof.svg">
  <defs
     id="defs2" />
  <sodipodi:namedview
     id="base"
     pagecolor="#ffffff"
     bordercolor="#666666"
     borderopacity="1.0"
     inkscape:pageopacity="0.0"
     inkscape:pageshadow="2"
     inkscape:zoom="2.8"
     inkscape:cx="294.31023"
     inkscape:cy="634.27503"
     inkscape:document-units="mm"
     inkscape:current-layer="layer1"
     showgrid="false"
     showguides="true"
     inkscape:guide-bbox="true"
     inkscape:window-width="1366"
     inkscape:window-height="705"
     inkscape:window-x="-8"
     inkscape:window-y="-8"
     inkscape:window-maximized="1">
    <sodipodi:guide
       position="74.839284,151.94643"
       orientation="0,1"
       id="guide3730"
       inkscape:locked="false" />
  </sodipodi:namedview>
  <metadata
     id="metadata5">
    <rdf:RDF>
      <cc:Work
         rdf:about="">
        <dc:format>image/svg+xml</dc:format>
        <dc:type
           rdf:resource="http://purl.org/dc/dcmitype/StillImage" />
        <dc:title></dc:title>
      </cc:Work>
    </rdf:RDF>
  </metadata>
  <g
     inkscape:label="Capa 1"
     inkscape:groupmode="layer"
     id="layer1">
    <path
       style="fill:none;stroke:#000000;stroke-width:0.26458332px;stroke-linecap:butt;stroke-linejoin:miter;stroke-opacity:1"
       d="m 49.136905,145.05357 5.291667,-36.28572"
       id="path3713"
       inkscape:connector-curvature="0" />
    <path
       style="fill:none;stroke:#000000;stroke-width:0.26458332px;stroke-linecap:butt;stroke-linejoin:miter;stroke-opacity:1"
       d="m 106.21131,145.05357 -5.29166,-36.28571"
       id="path3713-2"
       inkscape:connector-curvature="0" />
    <path
       style="fill:none;stroke:#000000;stroke-width:0.26458332px;stroke-linecap:butt;stroke-linejoin:miter;stroke-opacity:1"
       d="m 54.428572,108.76785 46.491078,1e-5"
       id="path3732"
       inkscape:connector-curvature="0" />
    <path
       style="fill:none;stroke:#000000;stroke-width:0.26458332px;stroke-linecap:butt;stroke-linejoin:miter;stroke-opacity:1"
       d="M 49.136905,145.05357 H 106.21131"
       id="path3734"
       inkscape:connector-curvature="0" />
    <path
       style="fill:#ffffff;stroke:#000000;stroke-width:0.26458332px;stroke-linecap:butt;stroke-linejoin:miter;stroke-opacity:1"
       d="m 66.523808,132.20238 c 0.62996,0.25198 1.259922,0.50397 1.889882,0.75595 0.251984,0 0.516898,-0.0797 0.755952,0 0.169037,0.0564 0.218606,0.29829 0.377975,0.37798 0.250495,0.12524 1.195115,-0.1056 1.511906,0 0.251984,0.12599 0.503968,0.25198 0.755952,0.37797 0,0.126 -0.08909,0.28889 0,0.37798 0.01214,0.0121 1.04226,0 1.13393,0 1.133927,0 2.267855,0 3.401785,0 0.327549,0 1.292952,0.073 1.511903,0 0.267272,-0.0891 0.48264,-0.30965 0.755954,-0.37798 1.720655,0 0.02162,0.17818 1.133928,-0.37797 0.149865,-0.0749 1.056656,0.0773 1.13393,0 0.08909,-0.0891 -0.08909,-0.28889 0,-0.37798 0.08909,-0.0891 0.288885,0.0891 0.377976,0 0.08909,-0.0891 -0.08909,-0.28888 0,-0.37798 0.08909,-0.0891 0.265284,0.0563 0.377975,0 0.15937,-0.0797 0.218607,-0.29829 0.377976,-0.37797 0.112692,-0.0564 0.288886,0.0891 0.377976,0 0.08909,-0.0891 -0.08909,-0.28889 0,-0.37798 0.08909,-0.0891 0.288888,0.0891 0.377976,0 0.08909,-0.0891 -0.08909,-0.28888 0,-0.37797 0.08909,-0.0891 0.265287,0.0563 0.377976,0 0.159369,-0.0797 0.218609,-0.29829 0.377978,-0.37798 0.112689,-0.0563 0.265285,0.0563 0.377976,0 0.159369,-0.0797 0.218607,-0.29829 0.377976,-0.37797 0.112691,-0.0564 0.265284,0.0563 0.377976,0 0.159369,-0.0797 0.27914,-0.22973 0.377975,-0.37798 0.488956,-0.73343 0.377976,-1.09792 0.377976,-1.88988 -0.377975,0.50397 -0.688478,1.06645 -1.133926,1.5119 -0.17818,0.17818 -0.577773,-0.17818 -0.755953,0 -0.08909,0.0891 0.08909,0.28889 0,0.37798 -0.08909,0.0891 -0.288886,-0.0891 -0.377976,0 -0.17818,0.17818 0.112691,0.53057 0,0.75595 -0.07968,0.15937 -0.298292,0.21861 -0.377976,0.37798 -0.130541,0.26108 0.132677,1.7572 0,1.88988 -0.08909,0.0891 -0.288887,-0.0891 -0.377976,0 -0.17818,0.17818 0.178179,0.57777 0,0.75595 -0.08909,0.0891 -0.288887,-0.0891 -0.377977,0 -0.08909,0.0891 0.05635,0.26529 0,0.37798 -0.159368,0.31874 -0.596583,0.43721 -0.755952,0.75595 -0.05635,0.11269 0.08909,0.28889 0,0.37798 -0.17818,0.17818 -0.577773,-0.17818 -0.755952,0 -0.08909,0.0891 0.08909,0.28888 0,0.37797 -0.08909,0.0891 -0.288887,-0.0891 -0.377977,0 -0.08909,0.0891 0.08909,0.28889 0,0.37798 -0.188988,0.18899 -0.94494,-0.18899 -1.133928,0 -0.08909,0.0891 0.05635,0.26528 0,0.37798 -0.07968,0.15936 -0.251984,0.25198 -0.377976,0.37797 -0.125992,0.12599 -0.218608,0.29829 -0.377977,0.37798 -0.11269,0.0563 -0.258449,-0.0398 -0.377976,0 -0.267269,0.0891 -0.488683,0.28888 -0.755952,0.37797 -0.112248,0.0374 -1.812302,0.0388 -1.889881,0 -0.159369,-0.0797 -0.20894,-0.32163 -0.377976,-0.37797 -0.239053,-0.0797 -0.516899,0.0797 -0.755953,0 -0.169036,-0.0563 -0.20894,-0.32163 -0.377976,-0.37798 -0.239053,-0.0797 -0.530571,0.11269 -0.755952,0 -0.318738,-0.15937 -0.437215,-0.59658 -0.755953,-0.75595 -0.225381,-0.11269 -0.546288,0.13977 -0.755952,0 -0.234411,-0.15627 -0.178765,-0.55674 -0.377976,-0.75595 -1.475141,-1.47514 -0.202992,0.0875 -1.133929,-0.37798 -0.159368,-0.0797 -0.251984,-0.25198 -0.377976,-0.37798 -0.125992,0 -0.265285,0.0564 -0.377976,0 -0.159369,-0.0797 -0.218608,-0.29829 -0.377976,-0.37797 -0.112691,-0.0563 -0.25845,0.0398 -0.377976,0 -0.26727,-0.0891 -0.488683,-0.28889 -0.755953,-0.37798 -0.119526,-0.0398 -0.313154,0.10804 -0.377976,0 -0.34908,-0.5818 -0.503969,-1.25992 -0.755954,-1.88988 z"
       id="path3738"
       inkscape:connector-curvature="0" />
    <ellipse
       style="fill:#aa8800;stroke-width:0.26458332"
       id="path3742"
       cx="69.925591"
       cy="119.91815"
       rx="5.2916665"
       ry="4.7247024" />
    <ellipse
       style="fill:#aa8800;stroke-width:0.26458332"
       id="path3744"
       cx="84.099701"
       cy="119.35119"
       rx="5.1026788"
       ry="4.5357141" />
    <ellipse
       style="fill:#ffffff;stroke-width:0.26458332"
       id="path3748"
       cx="70.114578"
       cy="120.48512"
       rx="2.8348215"
       ry="2.6458333" />
    <ellipse
       style="fill:#ffffff;stroke-width:0.26458332"
       id="path3748-9"
       cx="83.721733"
       cy="119.91816"
       rx="2.8348215"
       ry="2.6458333" />
    <ellipse
       style="fill:#241c1c;stroke-width:0.26458332"
       id="path3769"
       cx="83.249252"
       cy="120.1544"
       rx="0.66145831"
       ry="0.51971728" />
    <ellipse
       style="fill:#241c1c;stroke-width:0.26458332"
       id="path3769-2"
       cx="70.020088"
       cy="120.7686"
       rx="0.66145831"
       ry="0.51971728" />
  </g>
</svg>
